# xmcd CD database file
#
# Track frame offsets:
#	150
#	26210
#	59512
#	84050
#	114886
#	135259
#	150713
#	173077
#	201032
#	224982
#	249220
#	268886
#	300257
#	318859
#
# Disc length: 4465 seconds
#
# Revision: 0
# Processed by: cddbd v1.5PL3 Copyright (c) Steve Scherf et al.
# Submitted via: CDex 1.51
#
DISCID=b5116f0e
DTITLE=Various Artist - Dansk Jazz vol. 7
DYEAR=2003
DGENRE=Jazz
TTITLE0=Hans Henrik Bay - Bays Blues
TTITLE1=Bob Rockwell - I Love Is A Lark
TTITLE2=Delirium - Turku Boogie
TTITLE3=Per Gade - Hymn To You
TTITLE4=Jan Harbeck - The Wasp
TTITLE5=Fessors Big City Band - Bayi Lam
TTITLE6=Mads Vinding and Jacob Fisher - M*A*S*H (Suicide is painless)
TTITLE7=Jesper Thilo og Sørens Kristiansens Trio - I Didn't Know About You
TTITLE8=MOLD - March
TTITLE9=Hess - Lund - Waidtløw - McBride /Off To Munich
TTITLE10=¨Carsten Dahl - Well you Needn't
TTITLE11=John Sund - Memory Song
TTITLE12=Hans Ulrik - Steve Swallow - Jonas Johansen - I Fall Asleep To Easily
TTITLE13=Svend Asmussen - My Man's Gone Now
EXTD=YEAR: 2003
EXTT0=
EXTT1=
EXTT2=
EXTT3=
EXTT4=
EXTT5=
EXTT6=
EXTT7=
EXTT8=
EXTT9=
EXTT10=
EXTT11=
EXTT12=
EXTT13=
PLAYORDER=
